<svg xmlns="http://www.w3.org/2000/svg" viewBox="0 0 512 512" role="img" aria-labelledby="title desc">
  <title id="title">Logo Binh chủng Tăng Thiết Giáp</title>
  <desc id="desc">Huy hiệu Binh chủng Tăng Thiết Giáp với xe tăng vàng trên nền xanh.</desc>
  <defs>
    <radialGradient id="greenCore" cx="50%" cy="45%" r="64%">
      <stop offset="0" stop-color="#145f36" />
      <stop offset="0.6" stop-color="#073b24" />
      <stop offset="1" stop-color="#032516" />
    </radialGradient>
    <linearGradient id="gold" x1="0" x2="1" y1="0" y2="1">
      <stop offset="0" stop-color="#fff3a9" />
      <stop offset="0.34" stop-color="#fed65b" />
      <stop offset="0.72" stop-color="#b9770e" />
      <stop offset="1" stop-color="#fff1a3" />
    </linearGradient>
    <linearGradient id="red" x1="0" x2="1" y1="0" y2="1">
      <stop offset="0" stop-color="#e32a2f" />
      <stop offset="0.55" stop-color="#b41219" />
      <stop offset="1" stop-color="#781014" />
    </linearGradient>
    <filter id="shadow" x="-20%" y="-20%" width="140%" height="140%">
      <feDropShadow dx="0" dy="7" stdDeviation="7" flood-color="#000" flood-opacity="0.36" />
    </filter>
  </defs>
  <circle cx="256" cy="256" r="238" fill="url(#gold)" />
  <circle cx="256" cy="256" r="218" fill="url(#greenCore)" />
  <circle cx="256" cy="256" r="174" fill="none" stroke="url(#gold)" stroke-width="13" />
  <path d="M256 48l19 58 61 .2-49.3 35.5 18.7 58.5L256 164l-49.4 36.2 18.7-58.5L176 106.2l61-.2z" fill="url(#red)" stroke="url(#gold)" stroke-width="7" filter="url(#shadow)" />
  <path d="M256 150l96 54v104l-96 62-96-62V204z" fill="none" stroke="url(#gold)" stroke-width="13" filter="url(#shadow)" />
  <g fill="url(#gold)" filter="url(#shadow)">
    <path d="M93 173c-35 60-30 132 16 189 7 8 18-1 13-10-39-55-40-111-12-169 5-11-11-21-17-10z" />
    <path d="M419 173c35 60 30 132-16 189-7 8-18-1-13-10 39-55 40-111 12-169-5-11 11-21 17-10z" />
    <path d="M95 198c22 3 39 18 47 39-27 1-46-13-47-39zm18 66c23 5 39 20 47 42-28 0-47-14-47-42zm34 60c22 7 37 23 43 47-28-4-45-21-43-47z" />
    <path d="M417 198c-22 3-39 18-47 39 27 1 46-13 47-39zm-18 66c-23 5-39 20-47 42 28 0 47-14 47-42zm-34 60c-22 7-37 23-43 47 28-4 45-21 43-47z" />
  </g>
  <g filter="url(#shadow)">
    <rect x="137" y="300" width="238" height="42" rx="20" fill="#4f3610" stroke="url(#gold)" stroke-width="6" />
    <rect x="153" y="270" width="206" height="48" rx="10" fill="url(#gold)" stroke="#7c550d" stroke-width="5" />
    <path d="M202 270l21-53h92l25 53z" fill="url(#gold)" stroke="#7c550d" stroke-width="5" />
    <rect x="238" y="184" width="36" height="84" rx="18" fill="url(#gold)" stroke="#7c550d" stroke-width="5" />
    <path d="M256 214h105c18 0 18 26 0 26H256z" fill="url(#gold)" stroke="#7c550d" stroke-width="5" />
    <circle cx="179" cy="321" r="13" fill="#fed65b" />
    <circle cx="217" cy="321" r="13" fill="#fed65b" />
    <circle cx="256" cy="321" r="13" fill="#fed65b" />
    <circle cx="295" cy="321" r="13" fill="#fed65b" />
    <circle cx="333" cy="321" r="13" fill="#fed65b" />
  </g>
  <path d="M67 380c86 69 292 69 378 0l24 28c-98 84-328 84-426 0z" fill="url(#red)" stroke="url(#gold)" stroke-width="9" />
  <text x="256" y="105" text-anchor="middle" font-family="Arial, sans-serif" font-size="25" font-weight="900" fill="#fed65b" letter-spacing="3">BINH CHỦNG</text>
  <text x="256" y="143" text-anchor="middle" font-family="Arial, sans-serif" font-size="38" font-weight="900" fill="#fed65b" letter-spacing="3">TĂNG THIẾT GIÁP</text>
  <text x="256" y="414" text-anchor="middle" font-family="Arial, sans-serif" font-size="18" font-weight="900" fill="#fed65b" letter-spacing="1">ĐOÀN KẾT - DŨNG CẢM - TỰ LỰC - ĐÁNH THẮNG</text>
</svg>
